REM DIRINDEX 1\2\6,1\2\4\7,1\2\4\8,1\2\5\9,1\3\12,1\3\10\13,1\3\10\14,1\3\10\15,1\3\11\16,1\3\11\17
REM DIRNAME cjc048,folder01,folder02,folder03,folder04,folder05,folder06,folder07,folder08,folder09,folder10,folder11,folder12,folder13,folder14,folder15,folder16
TITLE ""
FILE "073.mp3" MP3
  TRACK 01 AUDIO
    TITLE "12:cjc048_07907"
    INDEX 01 00:00:00
  TRACK 02 AUDIO
    TITLE "16:cjc048_07908"
    INDEX 01 00:02:04
  TRACK 03 AUDIO
    TITLE "17:cjc048_07909"
    INDEX 01 00:03:21
  TRACK 04 AUDIO
    TITLE "16:cjc048_07910"
    INDEX 01 00:04:27
  TRACK 05 AUDIO
    TITLE "17:cjc048_07911"
    INDEX 01 00:05:50
  TRACK 06 AUDIO
    TITLE "16:cjc048_07912"
    INDEX 01 00:07:23
  TRACK 07 AUDIO
    TITLE "17:cjc048_07913"
    INDEX 01 00:08:09
  TRACK 08 AUDIO
    TITLE "16:cjc048_07914"
    INDEX 01 00:10:25
  TRACK 09 AUDIO
    TITLE "17:cjc048_07915"
    INDEX 01 00:11:13
  TRACK 10 AUDIO
    TITLE "16:cjc048_07916"
    INDEX 01 00:12:26
  TRACK 11 AUDIO
    TITLE "17:cjc048_07917"
    INDEX 01 00:13:20
  TRACK 12 AUDIO
    TITLE "16:cjc048_07918"
    INDEX 01 00:14:43
  TRACK 13 AUDIO
    TITLE "17:cjc048_07919"
    INDEX 01 00:15:38
  TRACK 14 AUDIO
    TITLE "16:cjc048_07920"
    INDEX 01 00:16:65
  TRACK 15 AUDIO
    TITLE "17:cjc048_07921"
    INDEX 01 00:17:49
  TRACK 16 AUDIO
    TITLE "16:cjc048_07922"
    INDEX 01 00:18:64
  TRACK 17 AUDIO
    TITLE "17:cjc048_07923"
    INDEX 01 00:19:54
  TRACK 18 AUDIO
    TITLE "16:cjc048_07924"
    INDEX 01 00:20:65
  TRACK 19 AUDIO
    TITLE "17:cjc048_07925"
    INDEX 01 00:21:49
  TRACK 20 AUDIO
    TITLE "16:cjc048_07926"
    INDEX 01 00:22:58
  TRACK 21 AUDIO
    TITLE "17:cjc048_07927"
    INDEX 01 00:23:50
  TRACK 22 AUDIO
    TITLE "16:cjc048_07928"
    INDEX 01 00:24:59
  TRACK 23 AUDIO
    TITLE "17:cjc048_07929"
    INDEX 01 00:25:41
  TRACK 24 AUDIO
    TITLE "16:cjc048_07930"
    INDEX 01 00:26:48
  TRACK 25 AUDIO
    TITLE "17:cjc048_07931"
    INDEX 01 00:27:38
  TRACK 26 AUDIO
    TITLE "16:cjc048_07932"
    INDEX 01 00:28:66
  TRACK 27 AUDIO
    TITLE "17:cjc048_07933"
    INDEX 01 00:29:54
  TRACK 28 AUDIO
    TITLE "16:cjc048_07934"
    INDEX 01 00:31:59
  TRACK 29 AUDIO
    TITLE "17:cjc048_07935"
    INDEX 01 00:33:34
  TRACK 30 AUDIO
    TITLE "16:cjc048_07936"
    INDEX 01 00:35:19
  TRACK 31 AUDIO
    TITLE "17:cjc048_07937"
    INDEX 01 00:36:19
  TRACK 32 AUDIO
    TITLE "16:cjc048_07938"
    INDEX 01 00:38:04
  TRACK 33 AUDIO
    TITLE "17:cjc048_07939"
    INDEX 01 00:38:73
  TRACK 34 AUDIO
    TITLE "16:cjc048_07940"
    INDEX 01 00:41:00
  TRACK 35 AUDIO
    TITLE "17:cjc048_07941"
    INDEX 01 00:41:69
  TRACK 36 AUDIO
    TITLE "16:cjc048_07942"
    INDEX 01 00:43:05
  TRACK 37 AUDIO
    TITLE "17:cjc048_07943"
    INDEX 01 00:44:16
  TRACK 38 AUDIO
    TITLE "16:cjc048_07944"
    INDEX 01 00:45:37
  TRACK 39 AUDIO
    TITLE "17:cjc048_07945"
    INDEX 01 00:46:70
  TRACK 40 AUDIO
    TITLE "16:cjc048_07946"
    INDEX 01 00:48:30
  TRACK 41 AUDIO
    TITLE "17:cjc048_07947"
    INDEX 01 00:49:55
  TRACK 42 AUDIO
    TITLE "16:cjc048_07948"
    INDEX 01 00:51:20
  TRACK 43 AUDIO
    TITLE "17:cjc048_07949"
    INDEX 01 00:52:36
  TRACK 44 AUDIO
    TITLE "16:cjc048_07950"
    INDEX 01 00:53:62
  TRACK 45 AUDIO
    TITLE "17:cjc048_07951"
    INDEX 01 00:54:42
  TRACK 46 AUDIO
    TITLE "16:cjc048_07952"
    INDEX 01 00:56:12
  TRACK 47 AUDIO
    TITLE "17:cjc048_07953"
    INDEX 01 00:57:05
  TRACK 48 AUDIO
    TITLE "16:cjc048_07954"
    INDEX 01 00:58:52
  TRACK 49 AUDIO
    TITLE "17:cjc048_07955"
    INDEX 01 00:59:38
  TRACK 50 AUDIO
    TITLE "16:cjc048_07956"
    INDEX 01 01:00:53
  TRACK 51 AUDIO
    TITLE "17:cjc048_07957"
    INDEX 01 01:01:58
  TRACK 52 AUDIO
    TITLE "16:cjc048_07958"
    INDEX 01 01:03:57
  TRACK 53 AUDIO
    TITLE "17:cjc048_07959"
    INDEX 01 01:04:60
  TRACK 54 AUDIO
    TITLE "16:cjc048_07960"
    INDEX 01 01:06:14
  TRACK 55 AUDIO
    TITLE "17:cjc048_07961"
    INDEX 01 01:07:25
  TRACK 56 AUDIO
    TITLE "16:cjc048_07962"
    INDEX 01 01:08:60
  TRACK 57 AUDIO
    TITLE "17:cjc048_07963"
    INDEX 01 01:09:48
  TRACK 58 AUDIO
    TITLE "16:cjc048_07964"
    INDEX 01 01:11:02
  TRACK 59 AUDIO
    TITLE "17:cjc048_07965"
    INDEX 01 01:11:64
  TRACK 60 AUDIO
    TITLE "16:cjc048_07966"
    INDEX 01 01:13:04
  TRACK 61 AUDIO
    TITLE "17:cjc048_07967"
    INDEX 01 01:13:73
  TRACK 62 AUDIO
    TITLE "16:cjc048_07968"
    INDEX 01 01:15:15
  TRACK 63 AUDIO
    TITLE "17:cjc048_07969"
    INDEX 01 01:16:32
  TRACK 64 AUDIO
    TITLE "16:cjc048_07970"
    INDEX 01 01:17:45
  TRACK 65 AUDIO
    TITLE "17:cjc048_07971"
    INDEX 01 01:18:47
  TRACK 66 AUDIO
    TITLE "16:cjc048_07972"
    INDEX 01 01:19:60
  TRACK 67 AUDIO
    TITLE "17:cjc048_07973"
    INDEX 01 01:20:49
  TRACK 68 AUDIO
    TITLE "16:cjc048_07974"
    INDEX 01 01:21:45
  TRACK 69 AUDIO
    TITLE "17:cjc048_07975"
    INDEX 01 01:22:37
  TRACK 70 AUDIO
    TITLE "16:cjc048_07976"
    INDEX 01 01:23:62
  TRACK 71 AUDIO
    TITLE "17:cjc048_07977"
    INDEX 01 01:24:61
  TRACK 72 AUDIO
    TITLE "16:cjc048_07978"
    INDEX 01 01:25:72
  TRACK 73 AUDIO
    TITLE "17:cjc048_07979"
    INDEX 01 01:26:58
  TRACK 74 AUDIO
    TITLE "16:cjc048_07980"
    INDEX 01 01:27:63
  TRACK 75 AUDIO
    TITLE "17:cjc048_07981"
    INDEX 01 01:28:51
  TRACK 76 AUDIO
    TITLE "16:cjc048_07982"
    INDEX 01 01:30:32
  TRACK 77 AUDIO
    TITLE "17:cjc048_07983"
    INDEX 01 01:31:28
  TRACK 78 AUDIO
    TITLE "16:cjc048_07984"
    INDEX 01 01:33:25
  TRACK 79 AUDIO
    TITLE "17:cjc048_07985"
    INDEX 01 01:34:32
  TRACK 80 AUDIO
    TITLE "16:cjc048_07986"
    INDEX 01 01:35:47
  TRACK 81 AUDIO
    TITLE "17:cjc048_07987"
    INDEX 01 01:36:56
  TRACK 82 AUDIO
    TITLE "16:cjc048_07988"
    INDEX 01 01:38:26
  TRACK 83 AUDIO
    TITLE "17:cjc048_07989"
    INDEX 01 01:39:27
  TRACK 84 AUDIO
    TITLE "16:cjc048_07990"
    INDEX 01 01:41:67
  TRACK 85 AUDIO
    TITLE "17:cjc048_07991"
    INDEX 01 01:42:59
  TRACK 86 AUDIO
    TITLE "16:cjc048_07992"
    INDEX 01 01:44:17
  TRACK 87 AUDIO
    TITLE "17:cjc048_07993"
    INDEX 01 01:45:59
  TRACK 88 AUDIO
    TITLE "16:cjc048_07994"
    INDEX 01 01:47:44
  TRACK 89 AUDIO
    TITLE "17:cjc048_07995"
    INDEX 01 01:48:24
  TRACK 90 AUDIO
    TITLE "16:cjc048_07996"
    INDEX 01 01:49:39
  TRACK 91 AUDIO
    TITLE "17:cjc048_07997"
    INDEX 01 01:50:45
  TRACK 92 AUDIO
    TITLE "16:cjc048_07998"
    INDEX 01 01:51:72
  TRACK 93 AUDIO
    TITLE "17:cjc048_07999"
    INDEX 01 01:52:69
  TRACK 94 AUDIO
    TITLE "16:cjc048_08000"
    INDEX 01 01:56:28
  TRACK 95 AUDIO
    TITLE "17:cjc048_08001"
    INDEX 01 01:57:25
  TRACK 96 AUDIO
    TITLE "16:cjc048_08002"
    INDEX 01 01:58:52
  TRACK 97 AUDIO
    TITLE "17:cjc048_08003"
    INDEX 01 01:59:69
  TRACK 98 AUDIO
    TITLE "16:cjc048_08004"
    INDEX 01 02:03:22
  TRACK 99 AUDIO
    TITLE "17:cjc048_08005"
    INDEX 01 02:04:37
  TRACK 100 AUDIO
    TITLE "0:"
    INDEX 01 02:06:06
